<svg xmlns="http://www.w3.org/2000/svg" width="210.037" height="64.784" viewBox="0 0 210.037 64.784">
  <g id="starbucks_and_asu.42eb0fe_5" transform="translate(-56.8 -6.3)">
    <g id="Group_22430" data-name="Group 22430" transform="translate(175.483 19.591)">
      <path id="Path_280775" data-name="Path 280775" d="M291.7,59.628s-.594-.594-1.612-1.781a3.764,3.764,0,0,1-1.1-2.8V22.9H276.768V48.686c-.085,2.375-2.545,3.054-3.9,3.054a2.765,2.765,0,0,1-3.054-2.884V22.9h-20.1c-6.531,0-12.554,1.018-14.674,6.446l-1.272-4.75a2.4,2.4,0,0,0-2.375-1.612H210.1c-.254,0-.339.085-.254.339a14.471,14.471,0,0,1,1.612,1.781,4.31,4.31,0,0,1,.848,3.9l-7.8,31.045h11.451l1.612-6.786H228.5l1.781,6.786H245.13c6.192,0,11.027-.594,13.572-4.411,1.866,3.563,5.768,5.174,12.723,4.5,2.375-.254,4.75-1.357,5.768-3.138l.594,1.357a2.638,2.638,0,0,0,2.375,1.612h11.281c.424,0,.509-.085.254-.339M219.429,46.4l3.732-15.183L226.893,46.4Z" transform="translate(-204.5 -22.9)" fill="#8c0b42"/>
      <path id="Path_280776" data-name="Path 280776" d="M237.393,30.685s-.085.085,0,.085v.17l2.121,2.036h0V32.89c0-.339.085-.594.085-1.018h0L237.563,30.6c.085.085-.085,0-.17.085" transform="translate(-209.487 -24.069)" fill="#ffca38"/>
      <path id="Path_280777" data-name="Path 280777" d="M234.993,34.154l3.987,2.629h0V35.512h0v-.085h0L235.248,33.9a.656.656,0,0,0-.254.085c-.085,0,0,.17,0,.17" transform="translate(-209.123 -24.57)" fill="#ffca38"/>
      <path id="Path_280778" data-name="Path 280778" d="M233.193,37.624l6.447,2.8h.085v-.085a6.028,6.028,0,0,1-.594-1.866h0L233.448,37.2a.657.657,0,0,0-.254.085c-.085.254,0,.339,0,.339" transform="translate(-208.849 -25.07)" fill="#ffca38"/>
      <path id="Path_280779" data-name="Path 280779" d="M255.55,52.251c0-2.629-3.054-3.647-6.447-4.92-3.562-1.272-7.549-2.629-9.415-6.022h0l-7.379-.509s-.254,0-.254.085a.855.855,0,0,0,.085.254l7.549,1.866a.083.083,0,0,1,.085.085l-.085.085-7.8.763s-.085,0-.085.254a.854.854,0,0,0,.085.254l7.8.763h.085a.083.083,0,0,1-.085.085l-7.379,1.866a.371.371,0,0,0-.085.254c0,.085.254.085.254.085l7.8-.509h.085v.085l-7.04,3.054a.371.371,0,0,0-.085.254c0,.085.254.085.254.085l7.549-1.612h.085v.085L234.854,53.1s-.085.085,0,.254a.419.419,0,0,0,.254.085l7.04-2.884h.085v.085l-5.429,5s-.085.085,0,.254c.085.085.254,0,.254,0l6.447-3.9h.085c.085,0,0,.085,0,.085l-4.411,5.768s-.085.085.085.254c.085.085.254,0,.254,0l5.513-4.92h.085c.085,0,0,.085,0,.085l-3.138,6.446a.657.657,0,0,0,.085.254c.085.085.254,0,.254,0l4.665-5.683s1.781.594,2.545.763a6.833,6.833,0,0,0,5.259-1.272c.509-.17.763-.763.763-1.527" transform="translate(-208.644 -25.617)" fill="#ffca38"/>
      <path id="Path_280780" data-name="Path 280780" d="M271.421,60.975,269.639,58.6c-.085.339-.339,1.018-.339,1.018l1.781,1.527s.085.085.254,0c.17,0,.085-.17.085-.17" transform="translate(-214.335 -28.319)" fill="#ffca38"/>
      <path id="Path_280781" data-name="Path 280781" d="M274.032,57.993,270.385,54.6c0,.594-.085,1.612-.085,1.612l3.563,2.121s.085.085.254,0c.085-.17-.085-.339-.085-.339" transform="translate(-214.487 -27.711)" fill="#ffca38"/>
      <path id="Path_280782" data-name="Path 280782" d="M276.068,54.832,270.3,51.1c.085.763.085,2.036.085,2.036l5.429,2.121a.656.656,0,0,0,.254-.085c.17-.254,0-.339,0-.339" transform="translate(-214.487 -27.18)" fill="#ffca38"/>
      <path id="Path_280783" data-name="Path 280783" d="M276.029,42.183a.083.083,0,0,0-.085-.085.083.083,0,0,1-.085-.085l-7.634-.763h-.085l7.549-1.866a.083.083,0,0,0,.085-.085v-.085c0-.085-.085-.085-.254-.085s-7.634.509-7.634.509H267.8l7.04-3.054.085-.085v-.085c0-.085-.254-.085-.254-.085-.085,0-7.549,1.781-7.549,1.781h-.085l6.277-4.156.085-.085v-.085a.419.419,0,0,0-.254-.085c-.085,0-7.04,2.884-7.04,2.884h-.085l5.429-5a.083.083,0,0,0,.085-.085V31.41c-.085-.085-.254,0-.254,0l-6.446,3.9h-.085s4.156-5.429,4.241-5.768l.085-.085a.083.083,0,0,0-.085-.085s-.254-.085-.254,0c-.085.085-5.513,4.92-5.513,4.92h-.085l3.138-6.446s.085-.254-.085-.254c-.085-.085-.254,0-.254,0l-4.665,5.768a13.521,13.521,0,0,0-4.5-1.018c-2.036,0-3.563.339-4.411,1.1a2.441,2.441,0,0,0-.763,1.781c0,1.018.594,1.781,1.781,2.629a39.705,39.705,0,0,0,4.156,1.866,27.746,27.746,0,0,1,6.446,3.054,8.882,8.882,0,0,1,3.987,5.768l7.125,1.612a.656.656,0,0,0,.254-.085v-.085l-.085-.085-6.955-3.054h.085s7.38.509,7.8.509a.656.656,0,0,0,.254-.085v-.085l-.085-.085-7.38-1.866h0a.083.083,0,0,1,.085-.085h0l7.634-.763h.085c-.763-2.036-.763-2.036-.763-2.205" transform="translate(-211.649 -23.607)" fill="#ffca38"/>
      <path id="Path_280784" data-name="Path 280784" d="M308.629,27.82a2.29,2.29,0,1,1,2.29-2.29,2.281,2.281,0,0,1-2.29,2.29m0-4.92a2.629,2.629,0,0,0,0,5.259,2.54,2.54,0,0,0,2.63-2.629A2.642,2.642,0,0,0,308.629,22.9ZM307.612,24h.848a1.025,1.025,0,0,1,.848.254,1.06,1.06,0,0,1,.339.763.688.688,0,0,1-.594.763l.594,1.1h-.594l-.594-1.1h-.254v1.1H307.7V24Zm.679.509v.848h.424a.464.464,0,0,0,.509-.509.371.371,0,0,0-.254-.339h-.679Z" transform="translate(-219.906 -22.9)" fill="#8c0b42"/>
    </g>
    <line id="Line_1848" data-name="Line 1848" y1="64.784" transform="translate(141.018 6.3)" fill="none" stroke="#55565a" stroke-width="0.826"/>
    <g id="Group_22436" data-name="Group 22436" transform="translate(56.8 11.818)">
      <g id="Group_22434" data-name="Group 22434">
        <g id="Group_22431" data-name="Group 22431" transform="translate(1.709 20.08)">
          <path id="Path_280785" data-name="Path 280785" d="M62.689,53.672,62.262,50.9h0l-.214,2.848-.641.071L60.268,51.18h0l.5,2.777-.854.071L59.2,50.041l1.139-.214,1.068,2.563h0l.214-2.777L62.9,49.4l.712,3.987Z" transform="translate(-59.2 -41.496)" fill="none"/>
          <path id="Path_280786" data-name="Path 280786" d="M67.936,52.887l-.285-.712-.926.214V53.1l-.926.214.285-4.2,1.139-.214,1.709,3.916ZM66.8,49.826h0l-.071,1.78.712-.071Z" transform="translate(-61.1 -41.352)" fill="none"/>
          <path id="Path_280787" data-name="Path 280787" d="M71.449,49.1c-.214-.071-.427-.214-.5-.071a.327.327,0,0,0-.285.5c0,.214.214.285.641.427a1.192,1.192,0,0,1,1.068,1.068,1.323,1.323,0,0,1-1.068,1.567,1.9,1.9,0,0,1-1.282-.214l.285-.712a2.09,2.09,0,0,0,.712.214c.214,0,.285-.214.285-.5,0-.214-.214-.285-.641-.427-.5-.071-.854-.285-1.068-1.068a1.316,1.316,0,0,1,1.068-1.5,1.279,1.279,0,0,1,1.068.214Z" transform="translate(-62.192 -41.197)" fill="none"/>
          <path id="Path_280788" data-name="Path 280788" d="M74.538,48.326l.5,3.275-.854.071-.5-3.275-.712.142-.071-.712,2.35-.427.071.712Z" transform="translate(-63.145 -40.92)" fill="none"/>
          <path id="Path_280789" data-name="Path 280789" d="M77.312,51.272,76.6,47.285,78.523,47l.071.854-1.068.214.071.712.926-.214.071.712-.926.214.071.854,1.139-.214.071.854Z" transform="translate(-64.21 -40.805)" fill="none"/>
          <path id="Path_280790" data-name="Path 280790" d="M82.521,50.254l-.854-1.5h-.285l.285,1.567-.854.071L80.1,46.409l1.282-.214a1.285,1.285,0,0,1,1.5.926c.071.641-.071.926-.427,1.139l1.068,1.709Zm-1.068-3.133h-.285l.214,1.068h.285c.214,0,.427-.214.427-.641C82.023,47.121,81.667,46.979,81.453,47.121Z" transform="translate(-65.218 -40.57)" fill="none"/>
          <path id="Path_280791" data-name="Path 280791" d="M86.812,49.5,86.1,45.514l.926-.214.5,3.133,1.068-.214.071.854Z" transform="translate(-66.946 -40.316)" fill="none"/>
          <path id="Path_280792" data-name="Path 280792" d="M91.5,48.728c-.926.214-1.709-.641-1.923-1.923s.214-2.207,1.139-2.421,1.709.5,1.923,1.78C92.854,47.66,92.426,48.586,91.5,48.728Zm-.641-3.275c-.427.071-.5.641-.427,1.353s.427,1.139.854,1.139c.427-.071.5-.641.427-1.353C91.572,45.88,91.287,45.31,90.86,45.453Z" transform="translate(-67.932 -40.041)" fill="none"/>
          <path id="Path_280793" data-name="Path 280793" d="M96.472,47.891c-1.068.214-1.78-.5-1.994-1.78s.214-2.207,1.139-2.421a1.173,1.173,0,0,1,1.139.285l-.427.712c-.214-.214-.285-.214-.641-.214-.5.071-.641.712-.5,1.353s.427,1.282.926,1.139c.071,0,.214-.071.285-.071l-.071-.712-.285.071-.071-.854,1.282-.214.427,2.136A2.071,2.071,0,0,1,96.472,47.891Z" transform="translate(-69.343 -39.845)" fill="none"/>
          <path id="Path_280794" data-name="Path 280794" d="M100.8,47.028c-.926.214-1.709-.641-1.923-1.923s.214-2.207,1.139-2.421,1.709.5,1.923,1.78C102.154,45.96,101.726,46.957,100.8,47.028Zm-.5-3.347c-.427.071-.5.641-.427,1.353s.427,1.139.854,1.139c.427-.071.5-.641.427-1.353C100.872,44.109,100.587,43.682,100.3,43.682Z" transform="translate(-70.61 -39.552)" fill="none"/>
          <path id="Path_280795" data-name="Path 280795" d="M107.009,45.844l-.926.214.641-3.489-1.353.214-.071-.854,2.35-.427.071.641Z" transform="translate(-72.474 -39.221)" fill="none"/>
          <path id="Path_280796" data-name="Path 280796" d="M110.4,45.628h-.5L110.185,41h.5Z" transform="translate(-73.799 -39.077)" fill="none"/>
          <path id="Path_280797" data-name="Path 280797" d="M113.7,43l-.641,1.068,1.282-.214.071.712L112,45l-.071-.854.926-1.567a2.712,2.712,0,0,0,.214-.712c0-.214-.214-.427-.427-.285-.214,0-.285.214-.285.641l-.854.071a1.316,1.316,0,0,1,1.068-1.5c.712-.071,1.282.214,1.353.926A.9.9,0,0,1,113.7,43Z" transform="translate(-74.257 -39.016)" fill="none"/>
          <path id="Path_280798" data-name="Path 280798" d="M117.774,44.162c-1.068.214-1.567-.926-1.709-1.923-.214-.926-.071-2.136.926-2.35,1.068-.214,1.567.926,1.709,1.923C118.914,42.738,118.842,43.948,117.774,44.162Zm-.641-3.418c-.285.071-.285.854-.214,1.353s.285,1.282.641,1.282c.285-.071.285-.854.214-1.353C117.632,41.385,117.561,40.673,117.133,40.744Z" transform="translate(-75.55 -38.75)" fill="none"/>
          <path id="Path_280799" data-name="Path 280799" d="M121.7,43.372l-.5-2.991-.5.5-.5-.641.926-1.068.854-.071.712,3.987Z" transform="translate(-76.765 -38.53)" fill="none"/>
          <path id="Path_280800" data-name="Path 280800" d="M127.021,41.575l.071.854-.854.071-.071-.854-1.5.214-.071-.712.712-2.635,1.068-.214.427,2.421.427-.071.071.712Zm-1.282-2.207h0l-.427,1.709.712-.071Z" transform="translate(-78.032 -38.3)" fill="none"/>
        </g>
        <g id="Group_22433" data-name="Group 22433">
          <g id="Group_22432" data-name="Group 22432">
            <circle id="Ellipse_9125" data-name="Ellipse 9125" cx="26.417" cy="26.417" r="26.417" transform="translate(0 0)" fill="#fff"/>
            <path id="Path_280801" data-name="Path 280801" d="M85.881,21.564a24.538,24.538,0,0,0-2.635-.214,24.538,24.538,0,0,0-2.635.214c-.071,0-.214-.071-.071-.214.071-.071,2.777-2.136,2.777-2.136s2.635,1.994,2.777,2.136C86.094,21.422,85.952,21.635,85.881,21.564ZM81.323,34.595s-.071,0-.214.214c.5.427.926,1.353,2.136,1.353s1.567-.926,2.136-1.353c0-.071-.214-.214-.214-.214a7.339,7.339,0,0,1-1.923.214A6.706,6.706,0,0,1,81.323,34.595Zm1.923-1.567c-.285,0-.427-.071-.641-.071a1.653,1.653,0,0,0-.712.285c0,.071,0,.071.071.214a4.922,4.922,0,0,0,1.282.285,10.615,10.615,0,0,0,1.282-.285c.071-.071.071-.071.071-.214a1.653,1.653,0,0,0-.712-.285C83.531,32.814,83.531,33.028,83.246,33.028Zm26.275,4.984a8.838,8.838,0,0,1-.214,1.923c-2.991.5-3.987-2.136-7.049-1.994a16.4,16.4,0,0,1,.427,1.994c2.563,0,3.489,2.35,6.337,1.994a10.385,10.385,0,0,1-.5,2.136c-2.207.214-2.991-1.994-5.625-1.923v1.709c2.207,0,2.848,1.994,4.984,1.923a16.675,16.675,0,0,1-.854,2.136c-1.5-.071-1.994-1.994-4.344-1.923a12.578,12.578,0,0,1-.214,1.5c1.994-.071,2.421,1.709,3.774,1.78a13.6,13.6,0,0,1-1.139,1.923c-.854-.427-1.567-1.78-3.133-1.923A12.806,12.806,0,0,0,102.4,47.7a6.543,6.543,0,0,1-4.415-1.78c.427-2.563-3.489-5.056-3.489-6.836,0-1.994,1.068-3.062,1.068-5.839a8.252,8.252,0,0,0-2.421-5.625,3.193,3.193,0,0,0-.926-.712,9.3,9.3,0,0,1,2.35,5.91c0,2.563-1.139,3.916-1.139,6.195,0,2.35,3.347,4.344,3.347,6.765a7.5,7.5,0,0,1-1.282,3.7,7.682,7.682,0,0,0,4.842,2.35c.427,0,.641-.071.712-.427.071-.285.214-.5.285-.854,1.353.071,1.994,1.282,2.777,1.78-.427.5-.854,1.139-1.353,1.709a5.182,5.182,0,0,0-2.207-1.78,2.939,2.939,0,0,0-.5,1.068c.854.214,1.5,1.139,1.923,1.709-.5.5-1.068,1.068-1.567,1.5a5.132,5.132,0,0,0-1.5-1.567,8.893,8.893,0,0,0-.641.854,4.451,4.451,0,0,1,1.282,1.5c-.641.5-1.282.926-1.923,1.353-.285-2.635-3.987-4.557-2.991-7.619a4.451,4.451,0,0,0-.712,1.994c0,2.207,2.421,3.987,2.563,6.195a10.193,10.193,0,0,0-1.5.854c-.071-2.421-2.635-5.2-2.635-7.192,0-2.207,2.991-4.557,2.991-7.192S92,41.146,92,38.867c0-2.35,1.5-3.7,1.5-6.622a8.143,8.143,0,0,0-2.635-5.839,5.2,5.2,0,0,0-.926-.641,8.7,8.7,0,0,1,2.421,5.981c0,2.848-1.709,4.344-1.709,7.049,0,2.777,3.347,4.344,3.347,6.836s-3.062,4.771-3.062,7.405c0,2.421,2.777,4.771,2.777,7.619-.641.214-1.139.5-1.78.712.285-2.848-2.777-5.839-2.777-8.117,0-2.563,3.275-4.771,3.275-7.477s-3.275-3.987-3.275-6.836,1.994-4.415,1.994-7.477a7.385,7.385,0,0,0-2.991-5.981l-.071-.071q-.32-.107-.214.214A7.925,7.925,0,0,1,89.8,31.106c0,2.848-2.35,5.2-2.35,8.046,0,3.275,3.062,4.2,3.062,6.836s-3.275,4.842-3.275,7.69c0,2.635,3.133,5.625,2.635,8.687a18.609,18.609,0,0,1-1.923.427c.641-3.774-2.563-6.551-2.563-8.972,0-2.777,3.489-5.056,3.489-7.69,0-2.563-2.421-3.275-2.777-5.839a.533.533,0,0,0-.712-.5,9.221,9.221,0,0,1-2.136.427,5.762,5.762,0,0,1-2.136-.427.6.6,0,0,0-.712.5c-.285,2.563-2.777,3.347-2.777,5.839,0,2.635,3.489,5.056,3.489,7.69,0,2.563-3.062,5.2-2.563,8.972a9.325,9.325,0,0,1-1.923-.427c-.5-3.062,2.635-5.981,2.635-8.687,0-2.848-3.275-4.984-3.275-7.69,0-2.635,3.062-3.56,3.062-6.836,0-2.777-2.35-5.056-2.35-8.046a7.925,7.925,0,0,1,1.923-5.483c.071-.071,0-.285-.214-.214l-.071.071a7.588,7.588,0,0,0-2.991,5.981c0,3.133,1.994,4.771,1.994,7.477S74.06,42.926,74.06,45.7s3.133,4.984,3.133,7.477c0,2.35-3.062,5.269-2.777,8.117a10.3,10.3,0,0,1-1.78-.712c0-2.848,2.777-5.269,2.777-7.619,0-2.635-3.062-4.771-3.062-7.405,0-2.563,3.347-4.13,3.347-6.836s-1.638-4.344-1.638-7.049a8.4,8.4,0,0,1,2.421-5.981c-.285.214-.641.427-.926.641a7.9,7.9,0,0,0-2.635,5.839c0,2.991,1.5,4.344,1.5,6.622,0,2.35-3.347,4.2-3.347,6.836s2.991,4.984,2.991,7.192c0,1.994-2.563,4.771-2.635,7.192a10.194,10.194,0,0,1-1.5-.854c.214-2.207,2.563-3.987,2.563-6.195a3.9,3.9,0,0,0-.712-1.994c.926,3.062-2.635,4.984-2.991,7.619-.641-.427-1.282-.926-1.923-1.353a4.961,4.961,0,0,1,1.282-1.5,8.894,8.894,0,0,1-.641-.854,4.487,4.487,0,0,0-1.5,1.567,15.178,15.178,0,0,1-1.567-1.5c.427-.5,1.068-1.5,1.923-1.709a2.477,2.477,0,0,1-.5-1.068,5.182,5.182,0,0,0-2.207,1.78,17.9,17.9,0,0,1-1.353-1.709c.712-.5,1.353-1.78,2.777-1.78.071.285.214.5.285.854a.715.715,0,0,0,.712.427,8.018,8.018,0,0,0,4.842-2.35,8.331,8.331,0,0,1-1.282-3.7c0-2.421,3.347-4.415,3.347-6.764s-1.139-3.7-1.139-6.195a9.709,9.709,0,0,1,2.35-5.91,7.358,7.358,0,0,0-3.347,6.337c0,2.635,1.068,3.774,1.068,5.839,0,1.78-3.916,4.344-3.489,6.836a6.418,6.418,0,0,1-4.415,1.78,12.8,12.8,0,0,0,.427,1.567c-1.567.071-2.35,1.5-3.133,1.923a13.6,13.6,0,0,1-1.139-1.923c1.353-.071,1.78-1.994,3.774-1.78a9.448,9.448,0,0,1-.214-1.5c-2.35-.071-2.777,1.78-4.344,1.923a14.831,14.831,0,0,1-.854-2.136c2.136.071,2.777-1.923,4.984-1.923V42.071C60.959,42,60.175,44.207,57.9,43.994a10.384,10.384,0,0,1-.5-2.136c2.848.285,3.774-1.994,6.337-1.994a9.978,9.978,0,0,1,.427-1.994c-3.062-.071-4.13,2.563-7.049,1.994a17.638,17.638,0,0,0-.214-1.923c3.489.427,4.771-2.421,7.9-2.136A15.653,15.653,0,0,1,65.872,33.6c-3.916-.712-5.269,2.635-8.972,2.136A26.723,26.723,0,0,1,83.531,10.1a26.359,26.359,0,0,1,26.275,25.634c-3.7.5-5.056-2.848-8.972-2.136.427.712.712,1.5,1.068,2.207C104.75,35.449,106.032,38.3,109.521,38.012ZM71.853,26.9a6.776,6.776,0,0,0-6.337.641,6.961,6.961,0,0,0-2.777-4.557c-.214-.071-.427,0-.427.214.356,3.916-1.994,7.405-4.842,10.325,2.991.854,5.412-2.848,9.185-1.567A25,25,0,0,1,71.853,26.9Zm11.393-2.421c-2.421,0-4.557,1.353-5.056,3.133,0,.071,0,.214.214.071a3.3,3.3,0,0,1,1.5-.285,2.791,2.791,0,0,1,2.421,1.068,5.2,5.2,0,0,1,0,2.563c-.427-.071-.5-.427-.926-.427s-.712.285-1.353.285-.712-.285-1.139-.285c-.5,0-.641.5-.641,1.139,0,2.777,2.563,6.408,5.2,6.408s5.2-3.774,5.2-6.408c0-.641-.071-1.139-.641-1.139a1.544,1.544,0,0,1-1.139.427c-.641,0-1-.356-1.424-.356-.5,0-.427,1.068-1.068,1.068a4.318,4.318,0,0,1-.071-3.133,3,3,0,0,1,2.421-1.068,3.5,3.5,0,0,1,1.5.285c.214.071.214,0,.214-.071A5.722,5.722,0,0,0,83.246,24.483ZM87.162,28.4a2.426,2.426,0,0,0-1.709.641v.427c1.068-.285,1.994-.427,2.421.071a.87.87,0,0,0,.285-.641C88.23,28.685,87.8,28.4,87.162,28.4Zm-8.545,1.282c.5-.5,1.567-.5,2.777-.071,0-.5-.926-1.139-1.923-1.139q-1.068,0-1.068.641C78.262,29.254,78.262,29.468,78.618,29.681ZM95.351,20.5a8.781,8.781,0,0,0-4.984,1.923A17.09,17.09,0,0,1,92.574,18a8.781,8.781,0,0,0-5.981,2.777l-1.139-3.133,2.635-2.35L84.6,15.084l-1.353-3.275-1.353,3.275-3.56.071,2.635,2.35-1.21,3.062a10.01,10.01,0,0,0-5.981-2.777A17.091,17.091,0,0,1,75.983,22.2,9.1,9.1,0,0,0,71,20.282a25.535,25.535,0,0,1,2.991,4.771c.071.214.285.214.427.071a20.234,20.234,0,0,1,17.516,0c.214.071.427,0,.427-.071A29.465,29.465,0,0,1,95.351,20.5ZM99.623,32.1c3.774-1.282,6.195,2.421,9.185,1.567-2.848-3.062-5.2-6.408-4.842-10.325,0-.214-.214-.285-.427-.214a6.636,6.636,0,0,0-2.777,4.557,6.758,6.758,0,0,0-6.337-.641A16.764,16.764,0,0,1,99.623,32.1Z" transform="translate(-56.829 -10.1)" fill="#007042"/>
          </g>
        </g>
      </g>
      <g id="Group_22435" data-name="Group 22435" transform="translate(41.228 49.559)">
        <path id="Path_280802" data-name="Path 280802" d="M116.907,79.7a2.218,2.218,0,0,1,2.207,2.207,2.132,2.132,0,0,1-2.207,2.207,2.207,2.207,0,1,1,0-4.415Zm0,3.987a1.928,1.928,0,0,0,0-3.845,1.928,1.928,0,0,0,0,3.845Zm-.783-3.2h.926c.641,0,.854.214.854.712a.7.7,0,0,1-.641.712l.712,1.139h-.427l-.712-1.068h-.427v1.068h-.427V80.412h.142Zm.356,1.21h.427c.285,0,.641,0,.641-.427a.471.471,0,0,0-.5-.427h-.5v.854Z" transform="translate(-114.7 -79.7)" fill="#007042"/>
      </g>
    </g>
  </g>
</svg>
